<svg width="136" height="136" viewBox="0 0 136 136" fill="none" xmlns="http://www.w3.org/2000/svg">
<mask id="path-1-outside-1_489_7225" maskUnits="userSpaceOnUse" x="18" y="10" width="101" height="116" fill="black">
<rect fill="white" x="18" y="10" width="101" height="116"/>
<path d="M71 24C71.5523 24 72 24.4477 72 25V30.1162C76.1321 30.4772 80.1035 31.3956 83.8398 32.7969C86.3886 28.1502 91.3263 25 97 25C105.284 25 112 31.7157 112 40C112 44.6689 109.866 48.8388 106.521 51.5898C110.67 58.405 113.061 66.4088 113.061 74.9707C113.06 99.8399 92.8995 120.001 68.0303 120.001C43.161 120.001 23.0001 99.84 23 74.9707C23 66.1857 25.5179 57.9893 29.8682 51.0605C26.8762 48.3183 25 44.3784 25 40C25 31.7157 31.7157 25 40 25C45.5572 25 50.4082 28.0223 53 32.5127C56.7926 31.1701 60.8178 30.3209 65 30.043V25C65 24.4477 65.4477 24 66 24H71ZM74.5 15C76.433 15 78 16.567 78 18.5C78 20.433 76.433 22 74.5 22H61.5C59.567 22 58 20.433 58 18.5C58 16.567 59.567 15 61.5 15H74.5Z"/>
</mask>
<path d="M71 24C71.5523 24 72 24.4477 72 25V30.1162C76.1321 30.4772 80.1035 31.3956 83.8398 32.7969C86.3886 28.1502 91.3263 25 97 25C105.284 25 112 31.7157 112 40C112 44.6689 109.866 48.8388 106.521 51.5898C110.67 58.405 113.061 66.4088 113.061 74.9707C113.06 99.8399 92.8995 120.001 68.0303 120.001C43.161 120.001 23.0001 99.84 23 74.9707C23 66.1857 25.5179 57.9893 29.8682 51.0605C26.8762 48.3183 25 44.3784 25 40C25 31.7157 31.7157 25 40 25C45.5572 25 50.4082 28.0223 53 32.5127C56.7926 31.1701 60.8178 30.3209 65 30.043V25C65 24.4477 65.4477 24 66 24H71ZM74.5 15C76.433 15 78 16.567 78 18.5C78 20.433 76.433 22 74.5 22H61.5C59.567 22 58 20.433 58 18.5C58 16.567 59.567 15 61.5 15H74.5Z" fill="#86BC4F"/>
<path d="M71 24V19V19V24ZM72 25H77V25H72ZM72 30.1162H67V34.6985L71.5649 35.0972L72 30.1162ZM83.8398 32.7969L82.084 37.4784L86.1403 38.9997L88.2237 35.2014L83.8398 32.7969ZM106.521 51.5898L103.345 47.7282L99.9948 50.484L102.251 54.1897L106.521 51.5898ZM113.061 74.9707L118.061 74.9707V74.9707H113.061ZM68.0303 120.001V125.001H68.0303L68.0303 120.001ZM23 74.9707H18V74.9707L23 74.9707ZM29.8682 51.0605L34.1027 53.7192L36.3185 50.1901L33.2465 47.3745L29.8682 51.0605ZM53 32.5127L48.6696 35.0122L50.7484 38.6138L54.6686 37.2261L53 32.5127ZM65 30.043L65.3315 35.032L70 34.7218V30.043H65ZM66 24V19V24ZM74.5 15V10V10V15ZM78 18.5L83 18.5V18.5L78 18.5ZM74.5 22V27V27V22ZM61.5 22V27V27V22ZM58 18.5L53 18.5V18.5L58 18.5ZM61.5 15V10V10V15ZM71 24V29C68.7909 29 67 27.2091 67 25H72H77C77 21.6863 74.3137 19 71 19V24ZM72 25H67V30.1162H72H77V25H72ZM72 30.1162L71.5649 35.0972C75.2396 35.4183 78.767 36.2344 82.084 37.4784L83.8398 32.7969L85.5957 28.1153C81.44 26.5567 77.0246 25.5361 72.4351 25.1352L72 30.1162ZM83.8398 32.7969L88.2237 35.2014C89.93 32.0906 93.2244 30 97 30V25V20C89.4281 20 82.8471 24.2098 79.456 30.3923L83.8398 32.7969ZM97 25V30C102.523 30 107 34.4772 107 40H112H117C117 28.9543 108.046 20 97 20V25ZM112 40H107C107 43.11 105.586 45.8857 103.345 47.7282L106.521 51.5898L109.698 55.4515C114.147 51.7919 117 46.2278 117 40H112ZM106.521 51.5898L102.251 54.1897C105.936 60.2441 108.061 67.3519 108.061 74.9707H113.061H118.061C118.061 65.4657 115.404 56.566 110.792 48.99L106.521 51.5898ZM113.061 74.9707L108.061 74.9707C108.06 97.0785 90.138 115.001 68.0302 115.001L68.0303 120.001L68.0303 125.001C95.6609 125.001 118.06 102.601 118.061 74.9707L113.061 74.9707ZM68.0303 120.001V115.001C45.9224 115.001 28.0001 97.0786 28 74.9707L23 74.9707L18 74.9707C18.0001 102.601 40.3995 125.001 68.0303 125.001V120.001ZM23 74.9707H28C28 67.1544 30.2374 59.8756 34.1027 53.7192L29.8682 51.0605L25.6336 48.4018C20.7984 56.103 18 65.2169 18 74.9707H23ZM29.8682 51.0605L33.2465 47.3745C31.2442 45.5393 30 42.9185 30 40H25H20C20 45.8383 22.5083 51.0974 26.4898 54.7466L29.8682 51.0605ZM25 40H30C30 34.4772 34.4772 30 40 30V25V20C28.9543 20 20 28.9543 20 40H25ZM40 25V30C43.6982 30 46.934 32.0053 48.6696 35.0122L53 32.5127L57.3304 30.0132C53.8824 24.0394 47.4163 20 40 20V25ZM53 32.5127L54.6686 37.2261C58.036 36.034 61.6117 35.2791 65.3315 35.032L65 30.043L64.6685 25.054C60.0239 25.3626 55.5491 26.3062 51.3314 27.7993L53 32.5127ZM65 30.043H70V25H65H60V30.043H65ZM65 25H70C70 27.2091 68.2091 29 66 29V24V19C62.6863 19 60 21.6863 60 25H65ZM66 24V29H71V24V19H66V24ZM74.5 15V20C73.6716 20 73 19.3284 73 18.5L78 18.5L83 18.5C83 13.8056 79.1944 10 74.5 10V15ZM78 18.5L73 18.5C73 17.6716 73.6716 17 74.5 17V22V27C79.1944 27 83 23.1944 83 18.5L78 18.5ZM74.5 22V17H61.5V22V27H74.5V22ZM61.5 22V17C62.3284 17 63 17.6716 63 18.5L58 18.5L53 18.5C53 23.1944 56.8056 27 61.5 27V22ZM58 18.5L63 18.5C63 19.3284 62.3284 20 61.5 20V15V10C56.8056 10 53 13.8056 53 18.5L58 18.5ZM61.5 15V20H74.5V15V10H61.5V15Z" fill="#1F621C" mask="url(#path-1-outside-1_489_7225)"/>
<circle cx="40" cy="40" r="7" fill="#1F621C"/>
<circle cx="97" cy="40" r="7" fill="#1F621C"/>
<rect x="58" y="22" width="7" height="20" rx="3.5" transform="rotate(-90 58 22)" fill="#86BC4F"/>
<path d="M68.5 46C84.8262 46 98 59.4656 98 76C98 92.5344 84.8262 106 68.5 106C52.1738 106 39 92.5344 39 76C39 59.4656 52.1738 46 68.5 46Z" fill="white" stroke="#747373" stroke-width="4"/>
<path d="M79.6953 64.6433L72.4157 75.3926L67.9004 71.6843L77.4199 62.8099C77.7076 62.528 78.6234 62.0716 79.4072 62.7341C80.0758 63.2999 79.9504 64.2691 79.6953 64.6433Z" fill="#86BC4F"/>
<circle cx="68" cy="76" r="5" fill="#747373"/>
<circle cx="68" cy="76" r="3" fill="#86BC4F"/>
<rect x="43" y="74" width="9" height="4" rx="2" fill="#6C6C6C"/>
<rect x="85" y="74" width="9" height="4" rx="2" fill="#6C6C6C"/>
<rect x="66" y="102" width="9" height="4" rx="2" transform="rotate(-90 66 102)" fill="#6C6C6C"/>
<rect x="66" y="60" width="9" height="4" rx="2" transform="rotate(-90 66 60)" fill="#6C6C6C"/>
</svg>
