<svg width="136" height="136" viewBox="0 0 136 136" fill="none" xmlns="http://www.w3.org/2000/svg">
<path d="M109.051 41.8281C115.906 39.8473 124.162 43.45 126.157 50.9746C127.077 54.4422 126.763 57.8155 125.476 60.9648C125.714 61.2881 125.953 61.6276 126.201 62.0059L126.454 62.4023L126.455 62.4033C129.13 66.6841 129.587 71.1383 129.101 75.6895V75.6904C128.581 80.5483 125.798 85.0625 122.015 87.9443L122.005 87.9512L121.996 87.958C116.487 92.0792 109.508 93.603 103.337 94.2715C100.794 94.5469 97.8092 94.4658 95.5195 94.4072C88.0867 94.217 79.67 92.4118 73.3604 87.3916C71.5764 85.9721 69.7635 83.315 68.8574 81.7129L68.0762 80.332L68.9307 78.9951C69.7357 77.7357 70.7255 75.528 70.9932 73.2031C71.2548 70.9295 70.8135 68.8135 69.1631 67.1631L67.5293 65.5283L68.9365 63.6943C68.9415 63.6871 68.9669 63.6492 69.0156 63.5654C69.0734 63.4659 69.1381 63.3454 69.2227 63.1846C69.3588 62.9256 69.6105 62.4291 69.8818 62.0244C70.1368 61.6442 70.4223 61.2694 70.7061 60.915C69.4275 57.9989 69.0451 54.943 69.8848 51.5527C71.8786 43.5025 79.5997 39.8135 87.1025 41.835C89.528 42.4885 91.945 44.1476 93.6475 46.1289C93.9133 46.0962 94.1866 46.0698 94.4609 46.0479C95.5475 45.961 96.822 45.9353 98.0635 45.9463C99.5772 45.9597 101.206 46.0297 102.495 46.1426C104.199 44.0391 106.674 42.515 109.051 41.8281Z" fill="white" stroke="#6C6C6C" stroke-width="5.27155"/>
<path d="M92.2882 63.6074C93.4361 65.5401 94.3097 66.8274 96.7386 67.1447C98.7673 67.4131 101.195 67.1016 102.509 65.3585C103.035 64.66 103.653 63.2942 104.647 63.4884C105.302 63.6165 105.744 64.386 106.102 64.8893C105.849 65.8872 105.635 66.2533 105.071 67.1141C102.49 70.538 97.0747 71.4387 93.4778 69.2947C92.0933 68.4695 89.2384 66.2955 90.1007 64.3384C90.2547 63.9887 90.793 63.5664 91.1716 63.4718C91.5302 63.4653 91.9304 63.5478 92.2882 63.6074Z" fill="#6C6C6C"/>
<path d="M80.778 49.898C82.9069 49.4278 85.0118 50.7814 85.4674 52.9138C85.9231 55.0462 84.5546 57.1416 82.4192 57.5824C80.3047 58.0189 78.2335 56.6669 77.7827 54.5552C77.3319 52.4435 78.6691 50.3635 80.778 49.898Z" fill="#6C6C6C"/>
<path d="M113.083 49.898C115.212 49.4278 117.316 50.7814 117.772 52.9138C118.228 55.0462 116.859 57.1416 114.724 57.5824C112.609 58.0189 110.538 56.6669 110.087 54.5552C109.637 52.4435 110.974 50.3635 113.083 49.898Z" fill="#6C6C6C"/>
<path d="M21.9082 40.7256C25.4991 40.8198 28.6555 42.161 30.915 45.333C31.2266 45.7703 31.5555 46.323 31.7676 46.666C32.3576 46.6196 33.0325 46.5321 33.8887 46.4551C35.3887 46.3201 37.081 46.1438 38.7959 46.1201H39.5312C41.2383 46.1356 42.9622 46.3379 44.4082 46.4609H44.4072C44.6846 46.4845 45.0301 46.5292 45.2783 46.5586C45.5628 46.5923 45.8177 46.6187 46.0508 46.6328C46.109 46.6363 46.1622 46.6362 46.21 46.6377C46.2334 46.604 46.2605 46.5678 46.2881 46.5264C46.4198 46.3287 46.5191 46.1655 46.6914 45.8965C46.8369 45.6694 47.0349 45.3672 47.2617 45.082V45.0811C48.1344 43.9842 49.1919 42.9329 50.6152 42.1299H50.6162C53.4219 40.5482 57.184 40.4203 59.957 41.1777C63.081 42.031 65.3954 43.9703 66.915 46.7129C69.196 50.8298 68.8721 54.7561 67.1328 58.6406C66.8976 59.166 66.603 59.7292 66.4062 60.123C66.3414 60.253 66.2849 60.3746 66.2314 60.4873C66.2329 60.4887 66.2339 60.4908 66.2354 60.4922C66.5152 60.7688 67.0222 61.2467 67.4199 61.7207C67.8868 62.2772 68.2805 62.805 68.6611 63.4609L68.8232 63.751C71.1669 68.0632 72.1721 73.3739 70.9482 78.3467C69.5363 84.0836 65.8711 87.7129 61.2998 90.3721L61.2559 90.3975L61.2109 90.4209C58.3906 91.92 55.361 92.8564 52.4775 93.5615C47.2469 94.8405 40.5035 95.3543 33.9268 94.8623C27.3895 94.3732 20.6975 92.8672 15.75 89.8545C12.9237 88.1335 9.82103 85.5758 8.17773 82.0684C7.54995 80.7283 7.17141 79.3036 6.88379 78.1162C5.64323 72.9942 6.63217 66.8802 9.7998 62.4707C10.3324 61.7293 11.0157 61.0624 11.4434 60.6279C11.5086 60.5617 11.5679 60.4975 11.625 60.4385C11.5242 60.2242 11.4207 60.0143 11.3223 59.8418C9.19997 56.1208 8.89673 51.7273 10.3779 48.0469C11.8906 44.2887 15.2357 41.3805 20.0225 40.8086V40.8105C20.3661 40.764 20.7796 40.7457 20.9863 40.7383C21.3094 40.7267 21.688 40.7198 21.9082 40.7256Z" fill="#70B548" stroke="#1F621C" stroke-width="5.27155"/>
<path d="M45.4102 63.381C45.9294 63.3602 46.6177 63.4892 46.9522 63.9232C48.0415 65.3364 46.1591 67.5281 45.1022 68.4128C43.2968 69.9239 40.7039 70.6763 38.3682 70.4689C36.0173 70.2582 33.8478 69.1176 32.3415 67.3004C31.6864 66.4192 31.4117 66.0069 31.1226 64.9587C31.3269 64.3416 31.625 63.8996 32.2295 63.5855C33.6225 62.8619 34.3846 65.1249 35.228 65.8735C35.8072 66.3876 36.2323 66.6522 36.9616 66.8849C39.144 67.5812 42.1404 67.3079 43.6941 65.4495C44.213 64.8287 44.6995 63.7277 45.3437 63.4128L45.4102 63.381Z" fill="#1F621C"/>
<circle cx="56" cy="53" r="4" fill="#1F621C"/>
<circle cx="22" cy="53" r="4" fill="#1F621C"/>
</svg>
