<svg width="136" height="136" viewBox="0 0 136 136" fill="none" xmlns="http://www.w3.org/2000/svg">
<path d="M65.3955 20.958C91.2947 19.5802 113.416 39.4412 114.824 65.3389C116.234 91.2364 96.3996 113.38 70.5039 114.821C44.5636 116.264 22.3725 96.3884 20.9609 70.4463C19.5495 44.5046 39.4521 22.3384 65.3955 20.958Z" fill="white" stroke="#6C6C6C" stroke-width="6.21951"/>
<path d="M42.8817 46.5975C42.3601 44.2147 44.2875 42.3532 46.6735 42.8597C55.9732 44.8339 66.9175 48.8625 73.9774 53.9813C76.2889 55.6334 78.3824 57.571 80.2081 59.7481C86.4397 67.2216 90.6057 78.6489 92.7911 88.7317C93.3394 91.2615 91.2657 93.3685 88.7403 92.8007C87.7862 92.5862 86.9173 92.3788 86.3299 92.2336C76.5434 89.8144 64.8781 85.5071 57.6045 78.2616C50.2077 70.8937 45.9067 59.0519 43.4639 49.1103C43.3292 48.5624 43.1069 47.6266 42.8817 46.5975Z" fill="#70B548"/>
<path d="M67.2803 61.997C70.5378 61.6589 73.4519 64.0277 73.7863 67.2857C74.1208 70.5437 71.7488 73.4551 68.4903 73.786C65.2371 74.1164 62.3312 71.7488 61.9973 68.4959C61.6633 65.2429 64.0277 62.3343 67.2803 61.997Z" fill="#1F621C"/>
</svg>
