<svg width="136" height="136" viewBox="0 0 136 136" fill="none" xmlns="http://www.w3.org/2000/svg">
<path d="M65.3955 20.958C91.2947 19.5802 113.416 39.4412 114.824 65.3389C116.234 91.2364 96.3996 113.38 70.5039 114.821C44.5636 116.264 22.3725 96.3884 20.9609 70.4463C19.5495 44.5046 39.4521 22.3384 65.3955 20.958Z" fill="white" stroke="#6C6C6C" stroke-width="6.21951"/>
<path d="M65.3955 20.958C91.2947 19.5802 113.416 39.4412 114.824 65.3389C116.234 91.2364 96.3996 113.38 70.5039 114.821C44.5636 116.264 22.3725 96.3884 20.9609 70.4463C19.5495 44.5046 39.4521 22.3384 65.3955 20.958Z" fill="white" stroke="#6C6C6C" stroke-width="6.21951"/>
<path d="M96 41.3238C88.7492 34.0733 78.9153 30 68.6618 30C58.4081 30 48.5743 34.0733 41.3238 41.3238C34.0733 48.5743 30 58.4081 30 68.6618C30 78.9153 34.0733 88.7492 41.3238 96L68.6618 68.6618L96 41.3238Z" fill="#70B548"/>
</svg>
