<svg width="136" height="136" viewBox="0 0 136 136" fill="none" xmlns="http://www.w3.org/2000/svg">
<rect x="23.1098" y="24.4242" width="89.466" height="89.466" rx="19.2805" fill="white" stroke="#6C6C6C" stroke-width="6.21951"/>
<path d="M42.3906 24.4238H93.2949C103.943 24.4238 112.576 33.0568 112.576 43.7051V55.5449H23.1094V43.7051C23.1094 33.0568 31.7423 24.4238 42.3906 24.4238Z" fill="#70B548" stroke="#1F621C" stroke-width="6.21951"/>
<rect x="49" y="13.1465" width="7.00138" height="26.8386" rx="3.50069" fill="#1F621C"/>
<rect x="80.5059" y="13.1465" width="7.00138" height="26.8386" rx="3.50069" fill="#1F621C"/>
<rect x="37" y="64" width="13" height="13" rx="3" fill="#70B548"/>
<rect x="61" y="64" width="13" height="13" rx="3" fill="#70B548"/>
<rect x="85" y="64" width="13" height="13" rx="3" fill="#70B548"/>
<rect x="37" y="85" width="13" height="13" rx="3" fill="#70B548"/>
<rect x="61" y="85" width="13" height="13" rx="3" fill="#70B548"/>
</svg>
