<svg width="136" height="136" viewBox="0 0 136 136" fill="none" xmlns="http://www.w3.org/2000/svg">
<path d="M54.082 25.9541C57.6657 25.9652 62.7929 25.5922 67.0918 26.5166C68.1281 26.7396 69.2728 27.3594 70.0225 27.8105C70.8238 28.2928 71.7823 28.9535 72.415 29.5928H72.4141C75.8937 33.1083 79.55 36.8775 83.002 40.3721H83.001L89.8574 47.207L89.877 47.2266C94.3033 51.718 98.5328 56.0576 103.068 60.2656C104.221 61.3352 106.249 63.3361 108.153 65.3721C109.107 66.3914 110.052 67.4447 110.853 68.4121C111.609 69.3267 112.371 70.3262 112.842 71.2061H112.843C113.628 72.6633 114.038 74.2936 114.034 75.9492V75.9648C114.019 78.0373 113.394 80.0594 112.236 81.7783C111.572 82.7663 110.679 83.7147 109.908 84.4883C109.509 84.8889 109.103 85.2805 108.737 85.6338C108.362 85.9964 108.034 86.3142 107.747 86.6045C105.173 89.2094 102.567 91.7697 99.9766 94.3115C97.381 96.8585 94.8022 99.3859 92.2559 101.949L92.249 101.956L92.2422 101.962C90.1013 104.092 87.9756 106.196 85.8809 108.326C84.7151 109.554 83.0719 111.607 81.1914 113.105C76.8257 116.585 70.5873 115.532 67.0527 112.052C66.1167 111.13 65.2371 110.161 64.4238 109.268C63.5905 108.352 62.817 107.506 62.0049 106.714L61.998 106.707L42.8672 87.9209L42.8477 87.9014L32.8301 77.8848L32.1797 77.252C31.5385 76.6403 30.9032 76.0653 30.0986 75.29C29.2538 74.4759 28.3513 73.557 27.5479 72.5361L27.21 72.0918C25.5969 69.8977 24.6196 66.9191 24.542 64.2568C24.3992 59.3631 24.4811 54.3766 24.4639 49.6191C24.4286 46.5265 24.4326 43.4334 24.4756 40.3408V40.332C24.5007 38.8292 24.4436 36.7447 24.8145 34.7363H24.8154C25.3466 31.8602 26.7344 29.5994 28.8545 28.083C30.8987 26.6209 33.3525 26.0429 35.7461 25.9336L35.8057 25.9307H35.8643C41.9368 25.8836 48.0096 25.8911 54.082 25.9541Z" fill="white" stroke="#6C6C6C" stroke-width="6.21951"/>
<path d="M48.6787 41.9521C53.1348 41.8754 56.8165 45.4126 56.918 49.8682C57.0195 54.324 53.5018 58.0244 49.0469 58.1504C44.5571 58.2772 40.8212 54.7276 40.7188 50.2373C40.6165 45.7468 44.1878 42.0297 48.6787 41.9521Z" fill="#70B548" stroke="#1F621C" stroke-width="5"/>
</svg>
