<svg width="136" height="136" viewBox="0 0 136 136" fill="none" xmlns="http://www.w3.org/2000/svg">
<path d="M32.7334 24.7773C35.4259 24.339 38.5268 24.8316 41.252 25.7744C43.9801 26.7183 46.7381 28.2532 48.6172 30.2842C49.2965 31.0185 50.0287 31.9422 50.6113 32.6494C50.8099 32.8905 50.9966 33.1123 51.1719 33.3154C59.6772 31.0396 68.9278 30.5918 77.5381 31.7305C79.2758 31.9603 81.1439 32.3887 82.8018 32.7549C84.0133 33.0225 85.1217 33.2578 86.1279 33.4189C86.5451 32.9795 86.9839 32.4535 87.5684 31.7764C88.4721 30.7293 89.6319 29.4533 91.2939 28.3906C99.9977 22.8259 109.23 24.107 114.979 29.6611C120.714 35.2035 122.451 44.4791 117.438 53.7324C117.035 54.477 116.822 54.931 116.713 55.208C116.773 55.303 116.857 55.4348 116.974 55.6162C117.334 56.1775 117.808 56.9495 118.295 58.0537L118.607 58.7783C125.006 73.9784 122.433 91.136 107.828 100.932C104.028 103.964 97.8304 106.193 93.9287 107.48V107.479C88.6981 109.205 84.1338 109.854 78.9824 110.421C63.9626 112.073 46.3909 110.721 32.4062 103.136L32.3848 103.124C30.2841 101.961 28.2945 100.599 26.4404 99.0576V99.0586C23.6315 96.7482 21.5555 94.4881 19.917 91.8545C18.2912 89.2414 17.1744 86.3848 16.1484 82.9971C13.3845 73.8699 15.6771 65.8582 19.0488 58.1787C19.483 57.1899 20.0944 56.0795 20.5889 55.1729C20.5429 55.0456 20.4894 54.9052 20.4277 54.752C20.1993 54.184 19.9309 53.6101 19.6904 53.0977C16.9424 47.2424 16.5345 40.7971 18.7197 35.417C20.9442 29.9407 25.7542 25.8529 32.7334 24.7773Z" fill="#70B548" stroke="#6C6C6C" stroke-width="5.82051"/>
<path d="M102.179 36.0391C109.007 36.0819 111.901 43.3782 107.881 48.7654C106.428 50.7153 104.943 52.0114 102.513 52.4361C100.492 52.5516 99.1507 52.1328 97.585 50.7908C92.2405 46.2101 95.3615 36.5651 102.179 36.0391Z" fill="#1F621C"/>
<path d="M34.4305 36.0316C43.3894 35.9473 45.186 49.6661 35.9216 52.1689C31.774 52.7329 28.5652 48.6463 28.0632 44.7275C27.506 40.3784 30.1004 36.5998 34.4305 36.0316Z" fill="#1F621C"/>
<path d="M56.8324 60.3267C59.1647 60.1328 59.2171 61.9704 60.5404 63.3691C64.3228 67.3667 72.238 67.1383 76.3589 63.864C78.7592 61.9568 78.5945 59.0878 82.0994 61.0214C82.8118 62.776 82.3161 63.3864 81.2211 64.7086C76.1512 70.3209 68.2681 72.1085 61.4309 68.7945C59.1044 67.6669 56.1886 65.0696 55.1683 62.597C54.5447 61.086 55.7559 60.6485 56.8324 60.3267Z" fill="#1F621C"/>
<path d="M31.2169 59.2935C34.2932 59.222 38.0804 60.6661 36.5273 64.5666C35.1774 65.7899 33.2419 66.1802 31.5031 66.2638C29.3919 66.2355 23.7882 65.789 26.1226 61.5154C26.8737 60.1401 29.6677 59.4862 31.2169 59.2935Z" fill="white"/>
<path d="M104.318 59.4132C105.691 59.2242 107.922 59.4968 109.027 60.387C110.214 61.3425 110.412 63.5242 109.399 64.6783C108.407 65.807 106.685 66.141 105.276 66.2587C102.58 66.2634 97.4708 66.1069 100.071 60.9413C100.621 59.8465 103.104 59.5808 104.318 59.4132Z" fill="white"/>
</svg>
