<svg width="136" height="136" viewBox="0 0 136 136" fill="none" xmlns="http://www.w3.org/2000/svg">
<path d="M114.594 40.4961C115.558 40.0074 116.707 40.0544 117.628 40.6201C118.549 41.1859 119.109 42.1889 119.109 43.2695V91C119.109 96.0338 115.034 100.109 110 100.109H26C20.9662 100.109 16.8909 96.0338 16.8906 91V43.2695C16.8906 42.1889 17.4514 41.1859 18.3721 40.6201C19.293 40.0544 20.4422 40.0074 21.4062 40.4961L65.7207 62.96L65.9805 63.1074C66.0647 63.1609 66.1468 63.2189 66.2256 63.2803C66.7486 63.6873 67.3721 63.8896 68 63.8896C68.6279 63.8896 69.2514 63.6873 69.7744 63.2803L70.0195 63.1074C70.1036 63.0541 70.1904 63.005 70.2793 62.96L114.594 40.4961Z" fill="white" stroke="#6C6C6C" stroke-width="6.21953" stroke-linejoin="round"/>
<path d="M110.509 36.8906C114.166 36.8906 117.327 38.9838 118.801 42.0361C119.535 43.5565 118.921 45.3849 117.419 46.1553L69.4189 70.7676C68.5282 71.2243 67.4718 71.2243 66.5811 70.7676L18.5811 46.1553C17.0789 45.3849 16.4654 43.5565 17.1992 42.0361C18.6726 38.9838 21.8341 36.8906 25.4912 36.8906H110.509Z" fill="white" stroke="#6C6C6C" stroke-width="6.21953" stroke-linejoin="round"/>
<path d="M74.1621 56.9092C78.7944 56.9094 82.6366 60.5639 82.6367 65.1768V65.4883C82.6367 67.7801 81.6967 69.9676 80.042 71.5723C80.0235 71.5902 80.0046 71.608 79.9854 71.625L69.2441 81.0986C68.2477 81.9775 66.7523 81.9775 65.7559 81.0986L55.0146 71.625C54.9954 71.608 54.9765 71.5902 54.958 71.5723C53.3032 69.9676 52.3633 67.7801 52.3633 65.4883V65.1768C52.3634 60.5639 56.2056 56.9094 60.8379 56.9092C63.3931 56.9092 65.8252 58.0353 67.4404 59.9932L67.5 60.0645L67.5596 59.9932C69.1748 58.0353 71.6068 56.9092 74.1621 56.9092Z" fill="#70B548" stroke="#1F621C" stroke-width="3.27273" stroke-linejoin="round"/>
</svg>
