<svg width="136" height="136" viewBox="0 0 136 136" fill="none" xmlns="http://www.w3.org/2000/svg">
<rect x="23.267" y="24.4242" width="89.466" height="89.466" rx="19.2805" fill="white" stroke="#6C6C6C" stroke-width="6.21951"/>
<path d="M42.3906 24.4238H93.2949C103.943 24.4238 112.576 33.0568 112.576 43.7051V55.5449H23.1094V43.7051C23.1094 33.0568 31.7423 24.4238 42.3906 24.4238Z" fill="#70B548" stroke="#1F621C" stroke-width="6.21951"/>
<path d="M84.6458 64.5027C85.9074 64.3453 87.1719 65.6053 87.9246 66.5117C89.6228 68.382 87.85 70.2601 86.4331 71.7742C82.0062 76.5048 77.764 81.677 73.3702 86.4108C71.1911 88.7585 67.4109 94.4186 65.0874 96.0067C64.1897 96.1152 63.2247 96.2604 62.4675 95.6704C60.7666 94.3452 59.2251 92.6631 57.6937 91.1425C56.0139 89.5016 54.3105 87.8847 52.5841 86.2927C51.6319 85.4122 50.203 84.2604 49.4494 83.2519C47.2648 80.3285 49.9536 77.9418 52.6411 77.2281C54.4769 77.8766 55.8388 79.7315 57.2217 81.0565C59.4072 83.1505 61.5051 85.3384 63.726 87.3972C68.1582 82.0712 72.705 76.8414 77.363 71.7117C79.3422 69.5359 82.1326 65.907 84.6458 64.5027Z" fill="#70B548"/>
<rect x="49" y="13.1465" width="7.00138" height="26.8386" rx="3.50069" fill="#1F621C"/>
<rect x="80.5063" y="13.1465" width="7.00138" height="26.8386" rx="3.50069" fill="#1F621C"/>
</svg>
