<svg width="136" height="136" viewBox="0 0 136 136" fill="none" xmlns="http://www.w3.org/2000/svg">
<path d="M23.025 41.5512C23.8134 58.3762 38.0307 74.3474 38.4035 91.1858C34.4908 91.5087 30.8006 91.6316 27.8745 95.0133C20.9408 102.825 27.3929 116.113 36.8914 117.575C42.3765 118.419 50.265 117.988 56 118C66.1486 118.021 82.5 118.209 89.5 118C96.5 117.791 100 117 105.5 110.5C111 104 111.506 97.1519 111 90C109.974 81.6446 104.807 72.4737 101.545 64.6307C98.6885 57.7585 96.4398 52.0111 94.1733 44.8142C101.545 44.8142 107.81 46.6617 110.635 39.5705C113.461 32.4792 112.957 19.3047 98.7113 19.126C84.4652 18.9472 70.6308 18.9793 56.7307 19.0944C50.5571 19.1456 43.9495 18.7328 37.8629 19.6563C28.1256 21.9497 22.5793 32.041 23.025 41.5512Z" fill="#6C6C6C"/>
<path d="M59.0303 23.3037C66.6753 23.1288 74.5723 23.3529 82.0645 23.3799C83.5552 23.3853 85.0277 23.4321 86.4375 23.4717C87.864 23.5117 89.2426 23.5448 90.6328 23.5283L97.5244 23.4463L93.0254 28.668C92.9342 28.7739 92.8583 28.877 92.7969 28.9746L92.791 28.9834C90.9142 31.9457 90.4514 35.6726 90.9258 39.8359C91.3995 43.9931 92.7722 48.2618 94.1982 52.0176L94.7188 53.3711C95.9454 56.5236 97.2542 59.644 98.584 62.8018C100.097 66.3949 101.639 70.0413 103.072 73.7529L103.729 75.4766C105.268 79.5828 106.818 84.2637 107.5 89.0205C108.283 94.4805 107.964 100.316 104.95 105.618L104.947 105.623C102.958 109.108 98.1182 112.835 92.3428 110.802C87.4171 109.068 85.2172 105.692 84.4375 102.523C83.9466 100.528 84.387 98.6685 84.9395 97.2764C85.4945 95.8777 86.2805 94.6612 86.8271 93.8467L86.832 93.8389L86.8379 93.8311C86.9746 93.63 87.1093 93.4426 87.2393 93.2676C87.15 93.2662 87.0567 93.2646 86.959 93.2646C84.2965 93.2646 78.2885 93.2923 73.7354 93.2646C64.264 93.207 53.9617 93.6001 44.2656 93.2119L41.3779 93.0967L41.2812 90.209C41.002 81.8469 38.0775 74.7637 34.791 67.249C31.5582 59.857 27.9235 51.955 27.124 42.6465C26.9091 40.1444 27.359 37.3365 28.2256 34.7852C29.0905 32.2389 30.4659 29.6662 32.3428 27.7637C37.4019 22.6357 43.1938 23.4093 47.9453 23.3965H47.959C51.6494 23.4037 55.3402 23.3719 59.0303 23.3027V23.3037Z" fill="white" stroke="#6C6C6C" stroke-width="6.22"/>
<path d="M72.8516 91.0439C80.0672 90.947 82.4179 91.0416 85.9219 91.043C87.0317 91.0436 88.0503 91.6573 88.5703 92.6377C89.0903 93.6184 89.0267 94.8065 88.4043 95.7256C86.2721 98.8734 85.9123 101.13 86.3096 102.973C86.7381 104.959 88.18 107.127 91.0361 109.766C91.9554 110.615 92.2502 111.946 91.7764 113.104C91.3025 114.263 90.1594 115.006 88.9082 114.968C86.9602 114.908 84.9989 114.901 83.0693 114.967C80.996 115.037 56.6462 114.972 52.1973 114.969C47.678 114.965 43.217 114.969 39.5498 114.969C36.5396 114.969 33.6838 113.128 31.71 110.919C29.665 108.63 28.0815 105.431 28.0029 101.881C27.9218 98.2104 29.4761 95.457 31.5439 93.6777C33.5018 91.9932 35.9558 91.1465 37.9541 91.1465C40.457 91.1465 65.6797 91.1403 72.8516 91.0439Z" fill="white" stroke="#6C6C6C" stroke-width="6" stroke-linejoin="round"/>
<rect x="43.6289" y="52.0195" width="37.898" height="4.89006" rx="2.44503" fill="#70B548"/>
<rect x="47.2959" y="61.7998" width="37.898" height="4.89006" rx="2.44503" fill="#70B548"/>
<rect x="50.9639" y="71.5801" width="37.898" height="4.89006" rx="2.44503" fill="#70B548"/>
</svg>
