<svg width="136" height="136" viewBox="0 0 136 136" fill="none" xmlns="http://www.w3.org/2000/svg">
<path d="M105.115 62.5931C105.458 62.565 106.158 62.5435 106.499 62.5722C107.842 62.6926 109.081 63.3463 109.939 64.3869C111.229 65.9613 111.051 68.3852 111.027 70.3179C110.987 73.4287 111.139 76.6489 110.836 79.7391C109.796 90.3455 101.03 99.6137 90.5661 101.467C86.1034 102.269 81.5258 102.02 76.9973 102.018L58.4637 102.015L47.5945 102.018C46.0536 102.02 43.385 102.123 41.9343 101.984C42.0503 102.081 42.1639 102.182 42.2747 102.285C43.0717 103.038 43.9121 103.907 44.706 104.678C46.3167 106.274 48.4694 107.931 48.5154 110.406C48.5672 113.204 46.1673 115.596 43.3962 115.574C42.7673 115.569 41.5317 115.392 41.0042 115.028C39.2205 113.797 37.665 112.088 36.0946 110.585C33.6115 108.251 31.1474 105.897 28.7023 103.523C26.867 101.726 24.0783 99.8515 24.0299 97.092C23.9997 95.3669 24.5885 94.1819 25.8234 93.0058C30.3184 88.7248 34.8551 84.4849 39.3747 80.2294C40.6306 79.0486 41.602 78.46 43.3454 78.4149C46.1701 78.3414 48.4739 80.7056 48.5092 83.4693C48.5414 85.9983 46.3956 87.6385 44.7234 89.186C43.7774 90.0585 42.843 90.9437 41.9205 91.8412C52.3202 91.6884 63.0697 91.824 73.4952 91.824L81.0195 91.83C83.599 91.8338 86.9393 91.9857 89.3633 91.3403C92.2402 90.596 94.8458 89.0483 96.8758 86.8782C101.662 81.6904 100.877 76.231 100.849 69.7095C100.834 66.3195 101.21 63.598 105.115 62.5931Z" fill="#6C6C6C"/>
<path d="M90.9586 20.0199C93.1139 19.8932 94.1421 20.3582 95.7051 21.822C97.4037 23.4129 99.0582 25.0522 100.742 26.6587L106.322 31.9814C108.372 33.9328 111.208 35.8543 111.007 38.9924C110.817 41.9676 108.349 43.4586 106.304 45.4118C102.972 48.6374 99.6003 51.8223 96.1905 54.9657C94.7992 56.2521 93.5217 57.2813 91.476 57.1801C90.1304 57.1145 88.8659 56.5172 87.9606 55.5196C87.0654 54.5138 86.6065 53.1937 86.6848 51.8497C86.7357 50.9885 87.0108 50.1557 87.4826 49.4336C88.2842 48.1813 92.0116 44.9023 93.2599 43.781L64.531 43.7249L55.3272 43.7173C51.174 43.7141 46.9678 43.384 43.0968 45.1898C40.0664 46.6034 37.8076 48.7734 36.141 51.6447C33.5566 56.2383 34.324 60.433 34.233 65.4427C34.1887 66.5966 34.3534 67.901 34.076 69.0252C32.5874 75.0313 23.9209 74.0344 24.0366 67.6435C24.1353 63.9064 23.8132 59.9199 24.1828 56.2125C25.2018 45.9934 32.9245 37.0957 42.841 34.5072C47.2558 33.3548 51.3783 33.547 55.8194 33.5511L66.0544 33.5539C75.063 33.5521 84.2156 33.4691 93.2131 33.5717C91.7083 32.3666 88.8676 29.6526 87.7038 28.1513C85.301 25.0516 87.2604 20.7877 90.9586 20.0199Z" fill="#1F621C"/>
</svg>
