<svg width="136" height="136" viewBox="0 0 136 136" fill="none" xmlns="http://www.w3.org/2000/svg">
<path d="M101.5 18.6396C107.912 18.6396 113.11 23.838 113.11 30.25V110.393C113.11 119.794 102.52 125.297 94.8271 119.894L71.0977 103.227C69.2388 101.921 66.7612 101.921 64.9023 103.227L41.1729 119.894C33.4797 125.297 22.8897 119.794 22.8896 110.393V30.25C22.8896 23.838 28.088 18.6396 34.5 18.6396H101.5Z" fill="white" stroke="#1F621C" stroke-width="6.22"/>
<path d="M68.0528 47.5955C68.7771 46.2896 69.4733 45.2983 70.5993 44.2949C73.1803 41.9887 76.5965 40.8094 80.0713 41.0251C87.4304 41.4508 92.5605 47.9081 91.9509 54.9574C91.2776 62.7274 84.778 69.7045 79.0843 74.5421C76.5646 76.7458 70.9716 81.1316 67.8615 82C65.3137 81.0737 60.3282 77.4191 58.1755 75.6421C52.1671 70.6798 44.6939 63.1615 44.0462 55.0958C43.7695 51.6488 44.7283 47.9831 47.1064 45.4075C49.924 42.3558 52.3404 41.3336 56.3605 41.037C61.4545 40.9197 65.4897 43.2785 68.0528 47.5955Z" fill="#70B548"/>
</svg>
