<svg width="136" height="136" viewBox="0 0 136 136" fill="none" xmlns="http://www.w3.org/2000/svg">
<path d="M67.5823 21.3701C68.7766 21.3321 69.8365 22.0416 70.2834 23.1006L70.3645 23.3174L70.47 23.6201C70.8127 24.554 71.8391 26.9984 73.8772 29.3086C76.1512 31.8862 79.6508 34.2772 85.0305 34.2773C92.5936 34.2773 96.3685 29.556 98.1389 26.2061C99.4121 23.7969 102.395 21.2433 106.073 22.252C108.678 22.9666 111.315 24.1148 113.503 25.5615C115.756 27.0509 118.582 29.8155 121.224 32.6572C123.918 35.5557 126.602 38.7367 128.598 41.2305C130.206 43.24 130.539 46.0242 129.324 48.3662C127.878 51.1553 125.727 54.9112 123.873 57.6211C121.895 60.5131 118.225 60.8962 115.557 59.3008C114.875 58.8932 114.213 58.5028 113.627 58.1738C113.54 60.033 113.564 61.957 113.561 63.9727L113.644 84.0117V84.0195C113.646 85.6837 113.759 88.6015 113.441 90.8154L113.37 91.248C113.136 92.5542 112.306 93.4409 111.777 93.915C111.205 94.4278 110.578 94.8123 110.223 95.0273C110.141 95.0772 110.055 95.1225 109.968 95.1631C108.636 95.7824 106.919 96.2178 105.397 96.5361C103.832 96.8635 102.247 97.1115 101.125 97.292H101.121C88.1622 99.3553 74.7017 99.022 61.844 96.4346C61.3955 96.3443 60.5284 96.1955 59.9338 96.0625C59.2523 95.91 58.4277 95.683 57.636 95.2646C56.8071 94.8266 56.0042 94.1744 55.4114 93.1992C54.829 92.2411 54.5526 91.1411 54.4915 89.9609C54.3555 87.3347 54.3557 84.7492 54.3342 82.2256L54.3147 80.0479C54.2805 74.9717 54.3217 69.8951 54.4387 64.8203L54.4739 62.9346C54.5073 61.2549 54.5331 59.6356 54.469 58.1094C54.42 58.1342 54.3683 58.1587 54.3157 58.1865C53.8234 58.4473 53.355 58.7443 52.8684 59.0459C49.8224 60.9338 45.5552 60.053 43.6106 56.9219C41.5538 53.61 38.7245 48.7064 37.7727 46.3125C37.2683 45.0436 37.4648 43.6302 38.2542 42.5498L38.26 42.541C39.7123 40.5695 42.8026 37.0048 45.9456 33.6807C47.5289 32.0061 49.157 30.3588 50.635 28.9736C52.0741 27.6249 53.4965 26.4046 54.6389 25.6855C58.2043 23.4414 63.4054 21.8501 67.3596 21.3867C67.4335 21.3781 67.5079 21.3725 67.5823 21.3701Z" fill="#70B548" stroke="#1F621C" stroke-width="5.27201" stroke-linejoin="round"/>
<path d="M38.1191 39.3701C39.398 39.3294 40.5223 40.1432 40.9111 41.3252C41.1002 41.9 42.1724 44.8925 44.6494 47.7002C47.0714 50.4455 50.8028 52.9941 56.5322 52.9941C64.7089 52.9941 68.7366 47.8071 70.5801 44.2412C71.8449 41.7948 74.8253 39.2638 78.4912 40.2383C81.2989 40.9847 84.1524 42.2145 86.5059 43.7705C88.8835 45.3425 91.8825 48.2777 94.6895 51.3018C97.5496 54.3833 100.394 57.7611 102.494 60.3896C104.098 62.3973 104.435 65.1789 103.225 67.5225C101.671 70.5293 99.3095 74.657 97.3037 77.5645C95.3187 80.4415 91.6527 80.8255 88.9834 79.2275C88.1297 78.7164 87.2957 78.2234 86.584 77.8291C86.4777 79.8712 86.5044 81.9847 86.501 84.1943L86.5889 105.347V105.354C86.5912 107.241 86.726 110.598 86.3027 112.958C86.0642 114.289 85.2159 115.197 84.666 115.689C84.0732 116.221 83.4221 116.621 83.0479 116.848C82.9657 116.897 82.881 116.943 82.7939 116.983C81.4037 117.63 79.604 118.087 77.999 118.423C76.3515 118.768 74.6834 119.028 73.498 119.219L73.4932 119.22C59.832 121.395 45.642 121.043 32.0869 118.315H32.0859C31.6025 118.218 30.7008 118.063 30.0732 117.923C29.3586 117.763 28.5025 117.527 27.6836 117.095C26.8277 116.642 26.0022 115.97 25.3926 114.967C24.7935 113.981 24.506 112.846 24.4424 111.618C24.2991 108.85 24.2991 106.125 24.2764 103.459C24.209 97.3286 24.2461 91.1973 24.3877 85.0684C24.4261 82.5104 24.5171 80.0412 24.4082 77.7725C24.296 77.8254 24.1741 77.887 24.042 77.957C23.5169 78.2352 23.0174 78.5521 22.5059 78.8691C19.3569 80.8205 14.944 79.9077 12.9355 76.6738C10.7635 73.1765 7.78429 68.011 6.78516 65.498C6.27152 64.2061 6.47036 62.7664 7.27441 61.666L7.28125 61.6582C8.80884 59.5844 12.0654 55.8259 15.3818 52.3184C17.0518 50.5522 18.769 48.8159 20.3262 47.3564C21.8443 45.9337 23.3364 44.6543 24.5293 43.9033C28.2708 41.5482 33.7397 39.8739 37.8965 39.3867L38.1191 39.3701Z" fill="white" stroke="#6C6C6C" stroke-width="5.27201" stroke-linejoin="round"/>
<path d="M58.8991 62.4894C59.9733 62.4263 60.4857 62.658 61.2646 63.3875C62.1112 64.1804 62.9358 64.9974 63.775 65.798L66.5558 68.4507C67.5775 69.4232 68.9907 70.3808 68.8908 71.9448C68.7962 73.4275 67.5662 74.1706 66.5469 75.144C64.8862 76.7516 63.2059 78.3388 61.5065 79.9054C60.8132 80.5465 60.1765 81.0595 59.157 81.009C58.4864 80.9763 57.8562 80.6786 57.405 80.1815C56.9589 79.6802 56.7301 79.0223 56.7692 78.3525C56.7946 77.9233 56.9317 77.5082 57.1668 77.1484C57.5663 76.5243 59.4239 74.8901 60.046 74.3313L57.2122 74.3033L52.6253 74.2995C50.5555 74.2979 48.4592 74.1334 46.53 75.0334C45.0198 75.7379 43.894 76.8194 43.0634 78.2503C41.7755 80.5396 42.1579 82.6302 42.1126 85.1269C42.0904 85.7019 42.1725 86.352 42.0343 86.9123C41.2924 89.9055 36.9733 89.4087 37.0309 86.2237C37.0801 84.3612 36.9196 82.3744 37.1038 80.5268C37.6116 75.4339 41.4604 70.9995 46.4025 69.7095C48.6027 69.1352 50.6573 69.2309 52.8706 69.233L57.9714 69.2344C62.4611 69.2335 55.5386 69.1921 60.0227 69.2432C59.2727 68.6426 57.857 67.2901 57.277 66.5419C56.0795 64.9971 57.056 62.8721 58.8991 62.4894Z" fill="#70B548"/>
<path d="M52.1136 108.036C51.0394 108.099 50.527 107.867 49.7481 107.138C48.9015 106.345 48.0769 105.528 47.2377 104.727L44.4569 102.075C43.4352 101.102 42.022 100.145 42.1219 98.5806C42.2165 97.0979 43.4465 96.3548 44.4658 95.3814C46.1265 93.7738 47.8068 92.1866 49.5062 90.62C50.1995 89.9788 50.8362 89.4659 51.8557 89.5164C52.5263 89.5491 53.1565 89.8467 53.6077 90.3439C54.0538 90.8452 54.2826 91.5031 54.2435 92.1729C54.2181 92.6021 54.081 93.0171 53.8459 93.377C53.4464 94.0011 51.5888 95.6353 50.9667 96.1941L53.8005 96.2221L58.3874 96.2259C60.4572 96.2275 62.5535 96.392 64.4827 95.492C65.9929 94.7875 67.1187 93.706 67.9493 92.275C69.2372 89.9858 68.8548 87.8952 68.9001 85.3985C68.9223 84.8235 68.8402 84.1734 68.9784 83.6131C69.7203 80.6198 74.0394 81.1167 73.9818 84.3017C73.9326 86.1642 74.0931 88.1509 73.9089 89.9986C73.4011 95.0915 69.5523 99.5259 64.6102 100.816C62.41 101.39 60.3554 101.294 58.1421 101.292L53.0413 101.291C48.5516 101.292 55.4741 101.333 50.99 101.282C51.74 101.883 53.1557 103.235 53.7357 103.984C54.9332 105.528 53.9567 107.653 52.1136 108.036Z" fill="#6C6C6C"/>
</svg>
