<svg width="136" height="136" viewBox="0 0 136 136" fill="none" xmlns="http://www.w3.org/2000/svg">
<path d="M25.3134 40.2588C25.4873 40.2388 25.9485 40.2282 26.132 40.2285C28.9622 40.2334 31.7972 40.2288 34.627 40.2401C37.7775 40.2527 40.9432 40.1279 44.0647 40.6122C56.4414 42.5055 66.5933 51.4119 70.0815 63.4369C70.6856 65.5265 70.999 67.6031 71.5117 69.7038C72.4488 73.5427 74.7252 77.1516 77.5538 79.8856C81.1199 83.3429 85.7282 85.5265 90.662 86.0976C92.9807 86.3505 96.2849 86.2751 98.6606 86.2367L98.437 86.0166C97.3841 84.9793 94.3327 82.0853 93.7354 81.0395C93.3289 80.3307 93.116 79.5274 93.1181 78.7103C93.1281 77.4417 93.6443 76.2296 94.5513 75.3429C95.4341 74.4631 96.633 73.9743 97.8796 73.9861C99.8773 73.9965 100.816 74.9315 102.131 76.2599C103.03 77.1677 103.947 78.0794 104.852 78.983L112.636 86.7641C114.001 88.1339 114.864 88.9875 114.881 91.0969C114.899 93.3837 113.063 94.8133 111.532 96.3247C108.219 99.6395 104.907 102.961 101.589 106.271C100.492 107.364 99.3839 108.049 97.7707 108.017C96.5063 107.991 95.3038 107.462 94.431 106.546C93.5567 105.63 93.0882 104.401 93.1324 103.136C93.1851 101.13 94.3142 100.057 95.6519 98.7524C96.6707 97.7593 97.6546 96.7234 98.6933 95.7488C95.239 95.8712 90.553 95.8064 87.224 95.1749C76.5911 93.1559 67.5334 85.7526 63.5054 75.6905C62.2326 72.5108 61.926 69.7935 61.109 66.6101C59.7629 61.5474 56.7095 57.1051 52.4654 54.0344C49.7249 52.0545 46.5757 50.7138 43.2492 50.1105C40.7673 49.66 38.3381 49.7335 35.8279 49.7352C33.5577 49.7421 31.2875 49.735 29.0174 49.7137C28.021 49.7105 25.8021 49.7906 24.9047 49.643C24.1692 49.5251 23.4754 49.2232 22.8878 48.7653C21.8824 47.9924 21.2055 46.887 21.0416 45.6238C20.8732 44.3556 21.2205 43.0729 22.0056 42.0628C22.8604 40.9585 23.952 40.4242 25.3134 40.2588Z" fill="#6C6C6C"/>
<path d="M97.3963 28.0119C100.388 27.824 101.763 29.8905 103.694 31.8208L108.372 36.4967L111.839 39.9644C113.648 41.7741 115.579 43.4055 114.691 46.349C114.184 48.028 112.215 49.6498 110.955 50.9089L106.13 55.7327L103.028 58.8401C101.556 60.3161 100.347 61.9033 98.1096 62.0024C96.8267 62.072 95.5709 61.6155 94.6325 60.7384C93.6949 59.8672 93.151 58.6526 93.1261 57.373C93.1061 56.521 93.3204 55.6799 93.7455 54.9415C94.3769 53.8425 97.5842 50.8482 98.6785 49.714C98.0299 49.772 96.7861 49.7353 96.0941 49.7347C93.8053 49.7327 91.7912 49.6948 89.5201 50.0717C88.7163 50.1895 87.7581 50.4125 86.9806 50.638C82.8307 51.8424 79.1125 54.2095 76.2649 57.4595C75.6625 58.1394 74.7853 59.2296 74.3489 60.0213C73.6518 57.6798 71.0902 52.5914 69.4844 50.7561C69.9565 50.2648 70.4357 49.7804 70.9219 49.303C76.0615 44.3147 82.7239 41.1915 89.8462 40.4319C92.4675 40.1597 95.9703 40.2244 98.6742 40.2563C97.6654 39.257 94.5008 36.242 93.8636 35.2523C93.5027 34.6981 93.267 34.0722 93.1723 33.4179C92.9958 32.1364 93.3347 30.8372 94.1135 29.8047C94.9358 28.7347 96.0792 28.1804 97.3963 28.0119Z" fill="#1F621C"/>
<path d="M58.1391 76.0273C58.2798 76.2559 58.9276 78.089 59.1459 78.559C60.1931 80.8129 61.4624 83.2977 62.9838 85.268C62.7146 85.5514 62.4411 85.8306 62.1634 86.1056C56.9263 91.3228 50.664 94.5194 43.2788 95.4883C40.6686 95.8315 38.0444 95.761 35.4131 95.7589L25.9446 95.7361C24.8727 95.6862 24.0532 95.5588 23.1301 94.9494C22.0747 94.2481 21.3422 93.156 21.0944 91.9137C20.8515 90.6607 21.1158 89.3628 21.8293 88.3049C23.5959 85.7034 26.646 86.2149 29.4012 86.231L36.2729 86.2415C38.8348 86.2409 40.9802 86.3371 43.5184 85.8332C49.6621 84.6145 54.6556 81.1903 58.1391 76.0273Z" fill="#1F621C"/>
</svg>
