<svg width="136" height="136" viewBox="0 0 136 136" fill="none" xmlns="http://www.w3.org/2000/svg">
<path d="M45.3594 19.8975C46.7469 19.857 47.988 20.6616 48.542 21.8838L48.6436 22.1338L48.8027 22.5508C49.8675 25.2004 55.0404 35.9148 68.9668 35.915C79.8548 35.915 85.074 29.5158 87.3594 25.4004C88.8984 22.6289 92.3033 19.8228 96.4912 20.7803C100.216 21.6319 104.042 23.1117 107.17 25.0068C110.171 26.825 113.972 30.226 117.554 33.7568C121.197 37.3482 124.828 41.2912 127.528 44.3828C129.674 46.8394 130.115 50.402 128.466 53.3125C126.403 56.9513 123.29 61.9112 120.701 65.2881C118.354 68.35 114.339 68.7563 111.33 67.1025C109.911 66.3224 108.491 65.5454 107.361 64.9873C107.329 64.9713 107.295 64.9601 107.264 64.9473C107.115 67.3945 107.151 69.9318 107.146 72.6064L107.259 97.4746V97.4844C107.262 99.6774 107.436 103.667 106.887 106.475C106.567 108.109 105.448 109.183 104.78 109.731C104.037 110.342 103.221 110.802 102.745 111.066C102.651 111.119 102.554 111.166 102.455 111.208C100.719 111.948 98.4544 112.477 96.4033 112.87C94.3034 113.273 92.1759 113.577 90.6514 113.802L90.6465 113.803C73.1818 116.351 55.0385 115.939 37.7051 112.743C37.0502 112.622 35.9383 112.449 35.1328 112.284C34.2351 112.1 33.1824 111.833 32.1787 111.347C31.1373 110.842 30.0967 110.078 29.3125 108.896C28.533 107.72 28.1514 106.351 28.0674 104.864C27.8831 101.602 27.8826 98.3899 27.8535 95.2598C27.767 88.0489 27.8153 80.837 27.9971 73.6279C28.0474 70.554 28.1675 67.6154 28.0156 64.9209C27.7448 65.0182 27.4243 65.1541 27.0557 65.333C26.3684 65.6666 25.7158 66.0461 25.0645 66.416C24.8926 66.5136 24.7221 66.6065 24.5547 66.6953C20.9375 68.6131 16.0017 67.801 13.5 64.126C10.6988 60.0109 6.75563 53.7646 5.4375 50.7373C4.7418 49.1394 5.01341 47.3325 6.06738 46.0107L6.0752 46.001H6.07617C8.03479 43.5646 12.2102 39.1488 16.4629 35.0273C20.6347 30.9844 25.2913 26.8174 28.1543 25.166L28.6055 24.9121C33.3335 22.3081 40.015 20.4621 45.1182 19.9141C45.1983 19.9055 45.2788 19.8998 45.3594 19.8975Z" fill="white" stroke="#6C6C6C" stroke-width="6.22" stroke-linejoin="round"/>
<path d="M80.8706 48.0449C88.3571 48.3263 90.5386 54.4966 86.9718 60.593C88.0016 62.4429 88.9299 64.1227 89.6342 66.1125C92.5942 74.4748 87.1727 82.5343 79.0293 84.9799C71.1989 87.3315 61.0521 87.2339 53.6295 83.5088C53.5814 83.4824 53.5334 83.4559 53.4857 83.429C50.0138 81.4697 47.0105 77.9197 46.0038 74.0402C44.78 69.3234 46.1633 65.0615 48.5032 61.0054C46.5644 57.1637 45.5692 53.1437 49.3397 49.8905C50.7977 48.6087 52.7147 47.9759 54.6492 48.1382C57.4451 48.3605 59.5147 50.2614 61.2311 52.2805C64.8919 51.1166 71.1186 51.3668 74.8536 52.3073C76.2705 50.043 78.1037 48.3014 80.8706 48.0449Z" fill="#70B548"/>
</svg>
