<svg width="136" height="136" viewBox="0 0 136 136" fill="none" xmlns="http://www.w3.org/2000/svg">
<path d="M101.449 30.4657C107.748 31.2735 112.2 37.0353 111.393 43.335L102.141 115.477C101.333 121.776 95.5715 126.228 89.2719 125.421L29.1887 117.716C22.8892 116.908 18.4372 111.146 19.2449 104.846L28.4962 32.7046C29.304 26.4049 35.0658 21.9529 41.3655 22.7608L101.449 30.4657Z" fill="#1F621C" stroke="#1F621C" stroke-width="5"/>
<path d="M30.7219 35.0064C31.4947 28.9806 37.006 24.7221 43.0317 25.4949L99.1479 32.691C105.174 33.4638 109.432 38.9751 108.659 45.0008L101.724 99.0832L23.7866 89.0887L30.7219 35.0064Z" fill="white"/>
<path d="M54.7297 43.1842C56.6111 43.1894 59.2219 44.598 60.28 46.2047C60.7197 46.8724 61.1718 47.8211 61.6518 48.4046C65.6247 47.8938 69.8818 48.3365 73.71 49.5024C75.0845 49.921 76.6538 50.7072 77.9807 51.0591C78.9992 50.496 79.6857 49.5252 80.9519 48.9828C88.4652 45.7645 94.2952 53.4974 89.1363 60.1359C87.855 61.7845 88.5182 61.5061 88.9647 63.2436C90.7342 70.1255 88.4819 77.0106 81.8498 79.9962C80.1844 80.9456 77.471 81.4616 75.5943 81.7539C73.2855 82.1136 71.3231 82.0721 69.0229 81.9463C62.3874 81.5837 54.9916 79.735 49.6355 75.5683C48.8523 74.9482 48.1277 74.2536 47.471 73.4935C45.4621 71.1952 44.797 69.3527 44.3991 66.3066C43.9044 62.5204 45.3067 59.4652 47.3069 56.3979C47.6582 55.8593 48.0861 55.3648 48.4664 54.8513C48.4755 54.3554 48.2637 53.6039 48.128 53.1223C46.7163 48.1126 49.2707 43.1158 54.7297 43.1842Z" fill="#70B548"/>
<path d="M84.7018 51.9717C87.7266 52.4923 88.474 55.9405 86.2956 58.0342C85.5077 58.7921 84.7543 59.2578 83.6452 59.2676C82.7405 59.1704 82.1766 58.8862 81.5809 58.176C79.5473 55.7521 81.6398 51.7042 84.7018 51.9717Z" fill="#1F621C"/>
<path d="M54.6591 46.9919C58.6382 47.6126 58.4272 53.8283 54.135 54.2577C52.2542 54.2031 51.1314 52.1552 51.1967 50.3805C51.269 48.4109 52.6971 46.9258 54.6591 46.9919Z" fill="#1F621C"/>
<path d="M62.8085 59.4115C63.857 59.4969 63.7453 60.3156 64.2294 61.0331C65.613 63.0837 69.1399 63.5638 71.2079 62.4145C72.4124 61.7451 72.5501 60.4607 73.9623 61.5756C74.1494 62.4061 73.8847 62.6403 73.302 63.1462C70.6415 65.2626 67.0143 65.4763 64.2257 63.5045C63.2769 62.8335 62.1746 61.4675 61.9038 60.2961C61.7382 59.5802 62.3075 59.4752 62.8085 59.4115Z" fill="#1F621C"/>
<path d="M51.5247 57.0707C52.8942 57.2649 54.4676 58.1835 53.4923 59.7991C52.8038 60.2424 51.9168 60.2734 51.1396 60.1827C50.2055 60.0151 47.7533 59.4055 49.1024 57.6817C49.5365 57.1271 50.8235 57.0423 51.5247 57.0707Z" fill="white"/>
<path d="M83.9337 62.4934C84.5561 62.5103 85.5255 62.7951 85.9503 63.2711C86.4062 63.7819 86.3341 64.764 85.7998 65.2013C85.2769 65.629 84.4891 65.6507 83.8556 65.5994C82.6595 65.4034 80.4054 64.9587 81.9377 62.8589C82.2624 62.4139 83.3828 62.4784 83.9337 62.4934Z" fill="white"/>
<path d="M99.3367 113.077C98.5639 119.102 93.0526 123.361 87.0268 122.588L31.4579 115.462C25.4321 114.689 21.1736 109.178 21.9464 103.152L23.9176 87.7804L101.308 97.7047L99.3367 113.077Z" fill="#7EBF5C"/>
<rect x="34" y="99.9766" width="3" height="21.8035" rx="1.5" transform="rotate(-82.8461 34 99.9766)" fill="#318224"/>
<rect x="33" y="105.977" width="3" height="21.8035" rx="1.5" transform="rotate(-82.8461 33 105.977)" fill="#318224"/>
<path d="M97.3516 83.7344C107.705 82.0416 117.474 89.0562 119.176 99.4092C120.877 109.762 113.869 119.536 103.518 121.246C93.3172 122.93 83.674 116.156 81.751 106.059L81.666 105.575C79.9619 95.2113 86.9862 85.4301 97.3516 83.7344Z" fill="white" stroke="#1F621C" stroke-width="3"/>
<path d="M100.725 91.2144C103.988 90.9888 102.707 93.1702 103.379 95.222C104.134 97.5343 105.565 99.5498 107.769 100.702C108.675 101.175 111.534 102.132 111.836 103.384C111.886 104.991 108.925 105.069 107.801 105.377C107.086 105.581 106.395 105.862 105.741 106.217C103.533 107.402 102.124 109.178 101.122 111.464C100.76 112.287 100.797 112.912 100.238 113.601C99.6483 113.708 98.929 113.87 98.4092 113.473C97.6743 112.886 97.6264 111.154 97.4617 110.327C96.6257 106.117 93.4982 103.843 89.7121 102.382C89.1159 102.151 88.9332 100.42 89.694 100.08C90.6155 99.6756 91.7691 99.6743 92.7477 99.4358C95.9582 98.6529 98.2796 96.5933 99.5032 93.5293C99.7948 92.8008 100.232 91.8352 100.725 91.2144Z" fill="#318224"/>
<path d="M83.5654 10.7256C84.7264 9.66237 86.5249 9.94759 87.3389 11.2285L87.415 11.3555L92.0781 19.7314C95.6116 18.9986 99.8456 18.3359 101.938 18.168L102.162 18.1602C102.692 18.1687 103.257 18.3582 103.687 18.8057C104.217 19.3587 104.361 20.1288 104.138 20.8301C103.935 21.467 103.587 22.2421 103.29 22.8721C102.96 23.5727 102.716 24.0555 102.604 24.3154L102.601 24.3213L102.598 24.3281L97.8301 35.0996C97.3214 36.2484 96.0528 36.8244 94.8682 36.499C94.2446 36.3276 93.6347 36.175 93.0469 36.0645L92.4668 35.9688C90.7382 35.7258 89.0373 35.4154 87.3652 35.1035C85.684 34.7899 84.0374 34.476 82.3721 34.2139L82.3291 34.207L82.2861 34.1982C77.6245 33.1828 72.284 32.2719 67.4453 31.4688C66.2737 31.2743 65.4047 30.285 65.3545 29.1045C65.2542 26.7431 65.1014 24.1946 64.9502 21.6133C64.7993 19.0383 64.6501 16.4327 64.5596 13.9824C64.4861 11.9928 66.6226 10.7826 68.2783 11.7295L68.4375 11.8281L76.3682 17.1484C78.2328 15.7317 81.3801 12.727 83.5654 10.7256Z" fill="#FBCC57" stroke="#1F621C" stroke-width="3"/>
<circle cx="65.5" cy="8.5" r="3.5" fill="#FBCC57" stroke="#1F621C" stroke-width="2"/>
<circle cx="86.5" cy="6.5" r="3.5" fill="#FBCC57" stroke="#1F621C" stroke-width="2"/>
<circle cx="106.5" cy="16.5" r="3.5" fill="#FBCC57" stroke="#1F621C" stroke-width="2"/>
</svg>
